<svg width="60" height="60" viewBox="0 0 60 60" fill="none" xmlns="http://www.w3.org/2000/svg">
<path d="M49.3785 41.8727C48.0421 40.3992 46.4317 39.6796 44.3756 39.6796H40.0435L37.1995 36.9385C35.1092 38.6518 32.5735 39.6455 29.8321 39.6455C27.2622 39.6455 24.8293 38.7546 22.8418 37.2126L20.306 39.6455H15.7975C13.5016 39.6455 11.7198 40.4336 10.3149 42.0442C6.23721 46.7728 6.92253 56.8814 7.23093 59.9996H52.8734C53.1135 56.8469 53.5247 46.4986 49.3785 41.8727Z" fill="#073B39"/>
<path d="M17.9553 20.4229C17.1329 21.1082 16.5847 22.2047 16.5847 23.4725C16.5847 25.3572 17.8182 26.8991 19.3945 27.1733C19.7371 30.0173 20.9022 32.5188 22.6498 34.3691C23.0266 34.7461 23.4035 35.123 23.8147 35.4314C24.3288 35.8426 24.8769 36.1852 25.4595 36.4936C26.7616 37.1788 28.2007 37.5558 29.7427 37.5558C31.2847 37.5558 32.724 37.1788 34.026 36.4936C34.6085 36.1852 35.1568 35.8426 35.6708 35.4314C36.0821 35.123 36.4589 34.7461 36.8358 34.3691C38.5491 32.5189 39.7485 30.0516 40.0568 27.2075C40.0912 27.2075 40.1254 27.2075 40.1596 27.2075C41.9759 27.2075 43.4149 25.5285 43.4149 23.4725C43.4149 22.2047 42.8667 21.1082 42.0443 20.4229H17.9553Z" fill="#073B39"/>
<path d="M42.2624 13.2268C41.2002 9.69741 38.3903 6.09948 34.8267 4.24911V12.3016V13.3981C34.8267 13.4667 34.8267 13.5009 34.8267 13.5352C34.7924 13.9121 34.7239 14.2548 34.5527 14.5975C34.1071 15.4541 33.2162 16.0709 32.1883 16.0709H31.64H27.8708C26.9113 16.0709 26.0545 15.5569 25.6092 14.8031C25.4036 14.4947 25.3008 14.1521 25.2323 13.7751C25.198 13.638 25.198 13.5352 25.198 13.3981V12.4387V4.21484C21.6343 6.09948 18.8245 9.69741 17.7622 13.2268L17.5224 13.9807H15.5692V18.2639H17.728H20.7434H22.0112H38.5276H39.7612H44.4308V18.0583V13.9807H42.5025L42.2624 13.2268Z" fill="#073B39"/>
<path d="M27.8582 15.0085H32.1415C32.7583 15.0085 33.2723 14.6659 33.5464 14.1519C33.6834 13.912 33.752 13.6722 33.752 13.398V13.0896V11.8218V3.735V2.56996V2.1245C33.752 1.85037 33.6834 1.61051 33.6149 1.37064C33.3066 0.582523 32.5185 0 31.6276 0H27.8582C27.0358 0 26.3505 0.616789 26.2819 1.40491C26.2819 1.47344 26.2477 1.54197 26.2477 1.61051V2.56996V3.735V11.9589V13.261V13.398C26.2477 13.7407 26.3505 14.0491 26.5218 14.3232C26.8303 14.7344 27.3099 15.0085 27.8582 15.0085Z" fill="#073B39"/>
</svg>
