<svg width="18" height="18" viewBox="0 0 18 18" fill="none" xmlns="http://www.w3.org/2000/svg">
<path d="M8.79 0C3.94305 0 0 3.94305 0 8.79C0 13.637 3.94305 17.58 8.79 17.58C13.637 17.58 17.58 13.637 17.58 8.79C17.58 3.94305 13.637 0 8.79 0ZM12.9704 13.3366C12.8275 13.4795 12.64 13.5513 12.4525 13.5513C12.265 13.5513 12.0775 13.4795 11.9346 13.3366L8.27212 9.67413C8.13441 9.53715 8.0575 9.3511 8.0575 9.15625V4.395C8.0575 3.98993 8.38566 3.6625 8.79 3.6625C9.19434 3.6625 9.5225 3.98993 9.5225 4.395V8.853L12.9704 12.3009C13.2568 12.5873 13.2568 13.0502 12.9704 13.3366Z" fill="white"/>
</svg>
