<svg width="18" height="18" viewBox="0 0 18 18" fill="none" xmlns="http://www.w3.org/2000/svg">
<g clip-path="url(#clip0)">
<path d="M11.6562 8.88247L17.5843 12.6301V4.97656L11.6562 8.88247Z" fill="white"/>
<path d="M0 4.97656V12.6301L5.9281 8.88247L0 4.97656Z" fill="white"/>
<path d="M16.4853 2.74756H1.09901C0.550596 2.74756 0.115385 3.15639 0.032959 3.68282L8.79213 9.45376L17.5513 3.68282C17.4689 3.15639 17.0337 2.74756 16.4853 2.74756Z" fill="white"/>
<path d="M10.6495 9.54602L9.09436 10.5703C9.00204 10.6308 8.89763 10.6604 8.79213 10.6604C8.68662 10.6604 8.58222 10.6308 8.4899 10.5703L6.93479 9.54492L0.0351562 13.9091C0.119781 14.4312 0.552793 14.8367 1.09901 14.8367H16.4853C17.0315 14.8367 17.4645 14.4312 17.5491 13.9091L10.6495 9.54602Z" fill="white"/>
</g>
<defs>
<clipPath id="clip0">
<rect width="17.5843" height="17.5843" fill="white"/>
</clipPath>
</defs>
</svg>
