<svg width="18" height="18" viewBox="0 0 18 18" fill="none" xmlns="http://www.w3.org/2000/svg">
<g clip-path="url(#clip0)">
<path d="M12.7629 0H4.73708C2.12501 0 0 2.12501 0 4.73708V12.763C0 15.375 2.12501 17.5 4.73708 17.5H12.763C15.375 17.5 17.5 15.375 17.5 12.763V4.73708C17.5 2.12501 15.375 0 12.7629 0V0ZM8.74998 13.535C6.11148 13.535 3.96497 11.3885 3.96497 8.74998C3.96497 6.11148 6.11148 3.96497 8.74998 3.96497C11.3885 3.96497 13.535 6.11148 13.535 8.74998C13.535 11.3885 11.3885 13.535 8.74998 13.535V13.535ZM13.6494 5.09343C12.8697 5.09343 12.2355 4.45924 12.2355 3.67952C12.2355 2.89979 12.8697 2.26547 13.6494 2.26547C14.4291 2.26547 15.0635 2.89979 15.0635 3.67952C15.0635 4.45924 14.4291 5.09343 13.6494 5.09343Z" fill="white"/>
<path d="M8.74993 4.99072C6.67726 4.99072 4.99084 6.67701 4.99084 8.74981C4.99084 10.8225 6.67726 12.5089 8.74993 12.5089C10.8227 12.5089 12.509 10.8225 12.509 8.74981C12.509 6.67701 10.8227 4.99072 8.74993 4.99072V4.99072Z" fill="white"/>
<path d="M13.6495 3.2915C13.4356 3.2915 13.2615 3.46561 13.2615 3.6795C13.2615 3.89339 13.4356 4.06749 13.6495 4.06749C13.8635 4.06749 14.0376 3.89352 14.0376 3.6795C14.0376 3.46547 13.8635 3.2915 13.6495 3.2915Z" fill="white"/>
</g>
<defs>
<clipPath id="clip0">
<rect width="17.5" height="17.5" fill="white"/>
</clipPath>
</defs>
</svg>
