<svg width="13" height="18" viewBox="0 0 13 18" fill="none" xmlns="http://www.w3.org/2000/svg">
<path d="M6.36835 0C2.85682 0 0 2.85614 0 6.36678C0 10.7236 5.69905 17.1197 5.94169 17.3898C6.1696 17.6436 6.56751 17.6432 6.79501 17.3898C7.03765 17.1197 12.7367 10.7236 12.7367 6.36678C12.7366 2.85614 9.87984 0 6.36835 0ZM6.36835 9.57009C4.60161 9.57009 3.16431 8.13309 3.16431 6.36678C3.16431 4.60047 4.60165 3.16351 6.36835 3.16351C8.13505 3.16351 9.57235 4.60051 9.57235 6.36682C9.57235 8.13313 8.13505 9.57009 6.36835 9.57009Z" fill="white"/>
</svg>
