<svg width="18" height="18" viewBox="0 0 18 18" fill="none" xmlns="http://www.w3.org/2000/svg">
<path d="M17.142 12.9019L14.6802 10.4486C13.8009 9.5724 12.3063 9.92291 11.9546 11.0619C11.6908 11.8505 10.8116 12.2886 10.0203 12.1134C8.2619 11.6753 5.88802 9.39716 5.44841 7.55716C5.18465 6.76855 5.71217 5.89236 6.50347 5.62954C7.64645 5.27906 7.99813 3.78953 7.11892 2.91334L4.65712 0.460001C3.95375 -0.153334 2.89869 -0.153334 2.28324 0.460001L0.612731 2.12477C-1.05778 3.87715 0.788574 8.52097 4.92088 12.6391C9.05319 16.7572 13.713 18.6848 15.4715 16.9324L17.142 15.2677C17.7574 14.5667 17.7574 13.5153 17.142 12.9019Z" fill="white"/>
</svg>
