<svg width="18" height="18" viewBox="0 0 18 18" fill="none" xmlns="http://www.w3.org/2000/svg">
<g clip-path="url(#clip0)">
<path d="M16.3849 0H1.1176C0.500141 0 0 0.500141 0 1.11636V16.3836C0 16.9999 0.500141 17.5 1.1176 17.5H16.3836C16.9999 17.5 17.5 16.9999 17.5 16.3836V1.11636C17.5012 0.498906 17.0011 0 16.3849 0ZM14.5164 10.6635C14.8363 10.9895 15.5303 11.5366 15.4043 12.0935C15.2883 12.6048 14.5251 12.4183 13.7841 12.448C12.9382 12.4838 12.4368 12.5023 11.9281 12.0935C11.6885 11.8997 11.5477 11.67 11.318 11.4131C11.1093 11.1809 10.8463 10.7648 10.4881 10.7808C9.84475 10.8129 10.046 11.7095 9.81758 12.3208C6.24127 12.8839 4.80506 10.6746 3.53804 8.5308C2.92428 7.49224 2.03761 5.26198 2.03761 5.26198L4.56672 5.25333C4.56672 5.25333 5.37806 6.72906 5.59294 7.10941C5.7757 7.43296 5.97699 7.68982 6.18446 7.9788C6.35858 8.21837 6.63397 8.68764 6.93529 8.64935C7.42555 8.58637 7.51447 6.6846 7.21068 6.04739C7.08965 5.78929 6.79945 5.69914 6.49936 5.61146C6.60063 4.97177 9.33597 4.8384 9.77807 5.33484C10.4202 6.05603 9.3335 8.064 10.2128 8.64935C11.4477 8.00226 12.5023 5.29285 12.5023 5.29285L15.4636 5.31138C15.4636 5.31138 15.0005 6.77599 14.5152 7.42555C14.2324 7.80591 13.2939 8.65306 13.3309 9.28163C13.3606 9.7793 14.1237 10.2634 14.5164 10.6635Z" fill="white"/>
</g>
<defs>
<clipPath id="clip0">
<rect width="17.5" height="17.5" fill="white"/>
</clipPath>
</defs>
</svg>
